<mxfile host="dce2a732-3486-458b-8020-43671f24a050" modified="2020-07-29T12:42:41.469Z" agent="5.0 (Macintosh; Intel Mac OS X 10_15_5) AppleWebKit/537.36 (KHTML, like Gecko) Code/1.47.3 Chrome/78.0.3904.130 Electron/7.3.2 Safari/537.36" etag="s6JpO3VcJIsOa1THc4jw" version="13.1.3">
    <diagram id="6hGFLwfOUW9BJ-s0fimq" name="Page-1">
        <mxGraphModel dx="590" dy="438" grid="1" gridSize="10" guides="1" tooltips="1" connect="1" arrows="1" fold="1" page="1" pageScale="1" pageWidth="827" pageHeight="1169" math="0" shadow="0">
            <root>
                <mxCell id="0"/>
                <mxCell id="1" parent="0"/>
                <mxCell id="30" value="Submit an Order" style="edgeStyle=orthogonalEdgeStyle;rounded=0;orthogonalLoop=1;jettySize=auto;html=1;entryX=0.5;entryY=0;entryDx=0;entryDy=0;fontSize=12;endArrow=open;endFill=0;" edge="1" parent="1" source="2" target="3">
                    <mxGeometry relative="1" as="geometry"/>
                </mxCell>
                <mxCell id="2" value="&lt;b&gt;HTTP Client&lt;/b&gt;" style="rounded=1;whiteSpace=wrap;html=1;fillColor=none;" vertex="1" parent="1">
                    <mxGeometry x="360" y="40" width="120" height="40" as="geometry"/>
                </mxCell>
                <mxCell id="32" value="1" style="edgeStyle=orthogonalEdgeStyle;rounded=0;orthogonalLoop=1;jettySize=auto;html=1;entryX=0.5;entryY=0;entryDx=0;entryDy=0;endArrow=open;endFill=0;fontSize=12;" edge="1" parent="1" source="3" target="5">
                    <mxGeometry relative="1" as="geometry"/>
                </mxCell>
                <mxCell id="3" value="Reverse Proxy / Virtualized Middleware" style="rounded=1;whiteSpace=wrap;html=1;fillColor=none;arcSize=8;fontStyle=1" vertex="1" parent="1">
                    <mxGeometry x="120" y="160" width="600" height="60" as="geometry"/>
                </mxCell>
                <mxCell id="38" value="3" style="edgeStyle=orthogonalEdgeStyle;rounded=0;orthogonalLoop=1;jettySize=auto;html=1;entryX=0;entryY=0.5;entryDx=0;entryDy=0;endArrow=open;endFill=0;fontSize=12;" edge="1" parent="1" source="27" target="29">
                    <mxGeometry x="-0.3488" relative="1" as="geometry">
                        <mxPoint as="offset"/>
                    </mxGeometry>
                </mxCell>
                <mxCell id="27" value="Write Data Pump" style="strokeWidth=1;html=1;shape=mxgraph.flowchart.direct_data;whiteSpace=wrap;fillColor=none;fontSize=12;fontStyle=1" vertex="1" parent="1">
                    <mxGeometry x="220" y="520" width="160" height="40" as="geometry"/>
                </mxCell>
                <mxCell id="41" value="5" style="edgeStyle=orthogonalEdgeStyle;rounded=0;orthogonalLoop=1;jettySize=auto;html=1;entryX=0.75;entryY=1;entryDx=0;entryDy=0;endArrow=open;endFill=0;fontSize=12;exitX=0.5;exitY=0;exitDx=0;exitDy=0;exitPerimeter=0;" edge="1" parent="1" source="28" target="5">
                    <mxGeometry relative="1" as="geometry">
                        <Array as="points">
                            <mxPoint x="560" y="470"/>
                            <mxPoint x="240" y="470"/>
                        </Array>
                    </mxGeometry>
                </mxCell>
                <mxCell id="28" value="Read Data Pump" style="strokeWidth=1;html=1;shape=mxgraph.flowchart.direct_data;whiteSpace=wrap;fillColor=none;fontSize=12;fontStyle=1" vertex="1" parent="1">
                    <mxGeometry x="480" y="520" width="160" height="40" as="geometry"/>
                </mxCell>
                <mxCell id="39" value="4" style="edgeStyle=orthogonalEdgeStyle;rounded=0;orthogonalLoop=1;jettySize=auto;html=1;endArrow=open;endFill=0;fontSize=12;entryX=0.5;entryY=1;entryDx=0;entryDy=0;entryPerimeter=0;" edge="1" parent="1" source="29" target="28">
                    <mxGeometry x="0.3489" relative="1" as="geometry">
                        <Array as="points">
                            <mxPoint x="560" y="695"/>
                        </Array>
                        <mxPoint as="offset"/>
                    </mxGeometry>
                </mxCell>
                <mxCell id="29" value="Database" style="shape=cylinder;whiteSpace=wrap;html=1;boundedLbl=1;backgroundOutline=1;strokeWidth=1;fillColor=none;fontSize=12;fontStyle=1" vertex="1" parent="1">
                    <mxGeometry x="380" y="640" width="100" height="110" as="geometry"/>
                </mxCell>
                <mxCell id="35" value="2" style="edgeStyle=orthogonalEdgeStyle;rounded=0;orthogonalLoop=1;jettySize=auto;html=1;entryX=0.5;entryY=0;entryDx=0;entryDy=0;entryPerimeter=0;endArrow=open;endFill=0;fontSize=12;exitX=0.25;exitY=1;exitDx=0;exitDy=0;" edge="1" parent="1" source="5" target="27">
                    <mxGeometry relative="1" as="geometry"/>
                </mxCell>
                <mxCell id="42" value="6" style="edgeStyle=orthogonalEdgeStyle;rounded=0;orthogonalLoop=1;jettySize=auto;html=1;exitX=1;exitY=0.75;exitDx=0;exitDy=0;entryX=0;entryY=0.75;entryDx=0;entryDy=0;endArrow=open;endFill=0;fontSize=12;" edge="1" parent="1" source="5" target="22">
                    <mxGeometry relative="1" as="geometry"/>
                </mxCell>
                <mxCell id="43" value="7" style="edgeStyle=orthogonalEdgeStyle;rounded=0;orthogonalLoop=1;jettySize=auto;html=1;exitX=1;exitY=0.75;exitDx=0;exitDy=0;entryX=0;entryY=0.75;entryDx=0;entryDy=0;endArrow=open;endFill=0;fontSize=12;" edge="1" parent="1" source="22" target="16">
                    <mxGeometry relative="1" as="geometry"/>
                </mxCell>
                <mxCell id="5" value="" style="rounded=1;whiteSpace=wrap;html=1;fillColor=#fafafa;arcSize=5;strokeColor=#666666;fontColor=#333333;" vertex="1" parent="1">
                    <mxGeometry x="120" y="320" width="160" height="120" as="geometry"/>
                </mxCell>
                <mxCell id="8" value="Processing Unit" style="text;html=1;strokeColor=none;fillColor=none;align=center;verticalAlign=middle;whiteSpace=wrap;rounded=0;fontStyle=1" vertex="1" parent="1">
                    <mxGeometry x="130" y="330" width="140" height="20" as="geometry"/>
                </mxCell>
                <mxCell id="11" value="Component" style="rounded=1;whiteSpace=wrap;html=1;fontSize=9;" vertex="1" parent="1">
                    <mxGeometry x="130" y="360" width="60" height="30" as="geometry"/>
                </mxCell>
                <mxCell id="12" value="Component" style="rounded=1;whiteSpace=wrap;html=1;fontSize=8;" vertex="1" parent="1">
                    <mxGeometry x="210" y="360" width="60" height="30" as="geometry"/>
                </mxCell>
                <mxCell id="13" value="Data Replication Engine" style="rounded=1;whiteSpace=wrap;html=1;fontSize=9;" vertex="1" parent="1">
                    <mxGeometry x="130" y="400" width="140" height="30" as="geometry"/>
                </mxCell>
                <mxCell id="22" value="" style="rounded=1;whiteSpace=wrap;html=1;fillColor=#fafafa;arcSize=5;" vertex="1" parent="1">
                    <mxGeometry x="340" y="320" width="160" height="120" as="geometry"/>
                </mxCell>
                <mxCell id="23" value="Processing Unit" style="text;html=1;strokeColor=none;fillColor=none;align=center;verticalAlign=middle;whiteSpace=wrap;rounded=0;fontStyle=1" vertex="1" parent="1">
                    <mxGeometry x="350" y="330" width="140" height="20" as="geometry"/>
                </mxCell>
                <mxCell id="24" value="Component" style="rounded=1;whiteSpace=wrap;html=1;fontSize=9;" vertex="1" parent="1">
                    <mxGeometry x="350" y="360" width="60" height="30" as="geometry"/>
                </mxCell>
                <mxCell id="25" value="Component" style="rounded=1;whiteSpace=wrap;html=1;fontSize=8;" vertex="1" parent="1">
                    <mxGeometry x="430" y="360" width="60" height="30" as="geometry"/>
                </mxCell>
                <mxCell id="26" value="Data Replication Engine" style="rounded=1;whiteSpace=wrap;html=1;fontSize=9;" vertex="1" parent="1">
                    <mxGeometry x="350" y="400" width="140" height="30" as="geometry"/>
                </mxCell>
                <mxCell id="16" value="" style="rounded=1;whiteSpace=wrap;html=1;fillColor=#fafafa;arcSize=5;" vertex="1" parent="1">
                    <mxGeometry x="560" y="320" width="160" height="120" as="geometry"/>
                </mxCell>
                <mxCell id="17" value="Processing Unit" style="text;html=1;strokeColor=none;fillColor=none;align=center;verticalAlign=middle;whiteSpace=wrap;rounded=0;fontStyle=1" vertex="1" parent="1">
                    <mxGeometry x="570" y="330" width="140" height="20" as="geometry"/>
                </mxCell>
                <mxCell id="18" value="Component" style="rounded=1;whiteSpace=wrap;html=1;fontSize=9;" vertex="1" parent="1">
                    <mxGeometry x="570" y="360" width="60" height="30" as="geometry"/>
                </mxCell>
                <mxCell id="19" value="Component" style="rounded=1;whiteSpace=wrap;html=1;fontSize=8;" vertex="1" parent="1">
                    <mxGeometry x="650" y="360" width="60" height="30" as="geometry"/>
                </mxCell>
                <mxCell id="20" value="Data Replication Engine" style="rounded=1;whiteSpace=wrap;html=1;fontSize=9;" vertex="1" parent="1">
                    <mxGeometry x="570" y="400" width="140" height="30" as="geometry"/>
                </mxCell>
            </root>
        </mxGraphModel>
    </diagram>
</mxfile>